<svg width="464" height="50" viewBox="0 0 464 50" fill="none" xmlns="http://www.w3.org/2000/svg">
<path d="M77.572 14.4H91.012V34H86.812V18.18H81.436C81.324 19.5987 81.2213 20.784 81.128 21.736C81.0347 22.6693 80.8947 23.752 80.708 24.984C80.5213 26.216 80.316 27.2333 80.092 28.036C79.8867 28.8387 79.6067 29.6693 79.252 30.528C78.916 31.368 78.524 32.04 78.076 32.544C77.6467 33.0293 77.124 33.44 76.508 33.776C75.892 34.0933 75.2013 34.252 74.436 34.252C73.652 34.252 72.924 34.1307 72.252 33.888V30.192C72.644 30.304 73.092 30.3507 73.596 30.332C73.9507 30.3133 74.2773 30.2013 74.576 29.996C74.8747 29.772 75.136 29.4453 75.36 29.016C75.6027 28.568 75.808 28.12 75.976 27.672C76.1627 27.2053 76.3213 26.5987 76.452 25.852C76.5827 25.0867 76.6947 24.4147 76.788 23.836C76.8813 23.2387 76.9653 22.464 77.04 21.512C77.1333 20.56 77.1987 19.7853 77.236 19.188C77.292 18.5907 77.348 17.7693 77.404 16.724C77.4787 15.6787 77.5347 14.904 77.572 14.4ZM106.555 30.528C106.555 31.1253 106.872 31.424 107.507 31.424C107.768 31.424 108.011 31.3867 108.235 31.312V33.86C107.525 34.1213 106.807 34.252 106.079 34.252C104.66 34.252 103.671 33.748 103.111 32.74C101.711 33.8413 100.096 34.392 98.2666 34.392C96.9413 34.392 95.8213 34.028 94.9066 33.3C94.0106 32.5533 93.5626 31.5453 93.5626 30.276C93.5626 29.212 93.88 28.3253 94.5146 27.616C95.1493 26.9067 95.8866 26.4307 96.7266 26.188C97.5666 25.9267 98.4813 25.796 99.4706 25.796C100.572 25.796 101.636 25.9173 102.663 26.16V25.684C102.663 24.9933 102.392 24.4427 101.851 24.032C101.309 23.6213 100.525 23.416 99.4986 23.416C98.0053 23.416 96.4186 23.752 94.7386 24.424V21.064C96.5306 20.4667 98.2666 20.168 99.9466 20.168C104.352 20.168 106.555 22.1933 106.555 26.244V30.528ZM100.367 28.12C99.564 28.12 98.892 28.2693 98.3506 28.568C97.8093 28.8667 97.5386 29.3333 97.5386 29.968C97.5386 30.4533 97.7346 30.8547 98.1266 31.172C98.5373 31.4707 99.0413 31.62 99.6386 31.62C100.815 31.62 101.823 31.256 102.663 30.528V28.428C101.804 28.2227 101.039 28.12 100.367 28.12ZM124.068 27.868C124.068 29.94 123.405 31.5453 122.08 32.684C120.755 33.8227 119.037 34.392 116.928 34.392C114.8 34.392 113.073 33.7293 111.748 32.404C110.423 31.06 109.76 29.016 109.76 26.272C109.76 21.9227 111.132 18.8893 113.876 17.172C114.959 16.5 116.125 16.024 117.376 15.744C118.645 15.464 119.747 15.2307 120.68 15.044C121.632 14.8573 122.369 14.512 122.892 14.008V17.564C122.257 18.0867 121.184 18.4693 119.672 18.712C118.179 18.936 117.021 19.2627 116.2 19.692C115.491 20.084 114.931 20.6347 114.52 21.344C114.109 22.0347 113.848 22.7533 113.736 23.5C114.744 22.1 116.2 21.4 118.104 21.4C119.821 21.4 121.24 21.9787 122.36 23.136C123.499 24.2933 124.068 25.8707 124.068 27.868ZM113.736 27.896C113.736 28.7733 113.997 29.5573 114.52 30.248C115.043 30.9387 115.845 31.284 116.928 31.284C118.011 31.284 118.804 30.948 119.308 30.276C119.831 29.5853 120.092 28.792 120.092 27.896C120.092 27 119.831 26.216 119.308 25.544C118.804 24.8533 118.011 24.508 116.928 24.508C115.864 24.508 115.061 24.8627 114.52 25.572C113.997 26.2627 113.736 27.0373 113.736 27.896ZM128.044 32.516C126.607 31.2653 125.888 29.52 125.888 27.28C125.888 25.04 126.607 23.2947 128.044 22.044C129.482 20.7933 131.236 20.168 133.308 20.168C135.399 20.168 137.154 20.7933 138.572 22.044C140.01 23.2947 140.728 25.04 140.728 27.28C140.728 29.52 140.01 31.2653 138.572 32.516C137.154 33.7667 135.399 34.392 133.308 34.392C131.236 34.392 129.482 33.7667 128.044 32.516ZM135.856 29.912C136.472 29.2213 136.78 28.344 136.78 27.28C136.78 26.216 136.472 25.348 135.856 24.676C135.24 23.9853 134.391 23.64 133.308 23.64C132.226 23.64 131.376 23.9853 130.76 24.676C130.163 25.348 129.864 26.216 129.864 27.28C129.864 28.344 130.163 29.2213 130.76 29.912C131.376 30.584 132.226 30.92 133.308 30.92C134.391 30.92 135.24 30.584 135.856 29.912ZM146.713 22.52C147.815 20.952 149.439 20.168 151.585 20.168C153.62 20.168 155.216 20.868 156.373 22.268C157.549 23.6493 158.137 25.32 158.137 27.28C158.137 29.24 157.549 30.92 156.373 32.32C155.216 33.7013 153.62 34.392 151.585 34.392C149.737 34.392 148.263 33.7853 147.161 32.572V40.16H143.269V20.56H146.713V22.52ZM153.209 30.024C153.844 29.2773 154.161 28.3627 154.161 27.28C154.161 26.1973 153.844 25.292 153.209 24.564C152.575 23.8173 151.716 23.444 150.633 23.444C149.831 23.444 149.112 23.6587 148.477 24.088C147.861 24.5173 147.413 25.0493 147.133 25.684V28.876C147.413 29.5107 147.861 30.0427 148.477 30.472C149.112 30.9013 149.831 31.116 150.633 31.116C151.716 31.116 152.575 30.752 153.209 30.024ZM172.699 30.528C172.699 31.1253 173.016 31.424 173.651 31.424C173.912 31.424 174.155 31.3867 174.379 31.312V33.86C173.67 34.1213 172.951 34.252 172.223 34.252C170.804 34.252 169.815 33.748 169.255 32.74C167.855 33.8413 166.24 34.392 164.411 34.392C163.086 34.392 161.966 34.028 161.051 33.3C160.155 32.5533 159.707 31.5453 159.707 30.276C159.707 29.212 160.024 28.3253 160.659 27.616C161.294 26.9067 162.031 26.4307 162.871 26.188C163.711 25.9267 164.626 25.796 165.615 25.796C166.716 25.796 167.78 25.9173 168.807 26.16V25.684C168.807 24.9933 168.536 24.4427 167.995 24.032C167.454 23.6213 166.67 23.416 165.643 23.416C164.15 23.416 162.563 23.752 160.883 24.424V21.064C162.675 20.4667 164.411 20.168 166.091 20.168C170.496 20.168 172.699 22.1933 172.699 26.244V30.528ZM166.511 28.12C165.708 28.12 165.036 28.2693 164.495 28.568C163.954 28.8667 163.683 29.3333 163.683 29.968C163.683 30.4533 163.879 30.8547 164.271 31.172C164.682 31.4707 165.186 31.62 165.783 31.62C166.959 31.62 167.967 31.256 168.807 30.528V28.428C167.948 28.2227 167.183 28.12 166.511 28.12ZM182.916 34H179.052V23.836H174.768V20.56H187.2V23.836H182.916V34ZM190.333 32.516C188.896 31.2653 188.177 29.52 188.177 27.28C188.177 25.04 188.896 23.2947 190.333 22.044C191.771 20.7933 193.525 20.168 195.597 20.168C197.688 20.168 199.443 20.7933 200.861 22.044C202.299 23.2947 203.017 25.04 203.017 27.28C203.017 29.52 202.299 31.2653 200.861 32.516C199.443 33.7667 197.688 34.392 195.597 34.392C193.525 34.392 191.771 33.7667 190.333 32.516ZM198.145 29.912C198.761 29.2213 199.069 28.344 199.069 27.28C199.069 26.216 198.761 25.348 198.145 24.676C197.529 23.9853 196.68 23.64 195.597 23.64C194.515 23.64 193.665 23.9853 193.049 24.676C192.452 25.348 192.153 26.216 192.153 27.28C192.153 28.344 192.452 29.2213 193.049 29.912C193.665 30.584 194.515 30.92 195.597 30.92C196.68 30.92 197.529 30.584 198.145 29.912ZM209.002 22.52C210.104 20.952 211.728 20.168 213.874 20.168C215.909 20.168 217.505 20.868 218.662 22.268C219.838 23.6493 220.426 25.32 220.426 27.28C220.426 29.24 219.838 30.92 218.662 32.32C217.505 33.7013 215.909 34.392 213.874 34.392C212.026 34.392 210.552 33.7853 209.45 32.572V40.16H205.558V20.56H209.002V22.52ZM215.498 30.024C216.133 29.2773 216.45 28.3627 216.45 27.28C216.45 26.1973 216.133 25.292 215.498 24.564C214.864 23.8173 214.005 23.444 212.922 23.444C212.12 23.444 211.401 23.6587 210.766 24.088C210.15 24.5173 209.702 25.0493 209.422 25.684V28.876C209.702 29.5107 210.15 30.0427 210.766 30.472C211.401 30.9013 212.12 31.116 212.922 31.116C214.005 31.116 214.864 30.752 215.498 30.024ZM226.364 34H222.976V20.56H226.868V28.12L232.86 20.56H236.22V34H232.356V26.44L226.364 34ZM242.711 34H238.343L241.871 29.492C240.975 29.1 240.294 28.5307 239.827 27.784C239.361 27.0373 239.127 26.1973 239.127 25.264C239.127 23.9387 239.594 22.828 240.527 21.932C241.479 21.0173 242.805 20.56 244.503 20.56H251.783V34H247.891V29.996H245.707L242.711 34ZM243.075 25.376C243.075 25.9173 243.262 26.3373 243.635 26.636C244.027 26.9347 244.578 27.084 245.287 27.084H247.891V23.64H245.287C243.813 23.64 243.075 24.2187 243.075 25.376ZM264.729 22.52C265.83 20.952 267.454 20.168 269.601 20.168C271.635 20.168 273.231 20.868 274.389 22.268C275.565 23.6493 276.153 25.32 276.153 27.28C276.153 29.24 275.565 30.92 274.389 32.32C273.231 33.7013 271.635 34.392 269.601 34.392C267.753 34.392 266.278 33.7853 265.177 32.572V40.16H261.285V20.56H264.729V22.52ZM271.225 30.024C271.859 29.2773 272.177 28.3627 272.177 27.28C272.177 26.1973 271.859 25.292 271.225 24.564C270.59 23.8173 269.731 23.444 268.649 23.444C267.846 23.444 267.127 23.6587 266.493 24.088C265.877 24.5173 265.429 25.0493 265.149 25.684V28.876C265.429 29.5107 265.877 30.0427 266.493 30.472C267.127 30.9013 267.846 31.116 268.649 31.116C269.731 31.116 270.59 30.752 271.225 30.024ZM280.103 32.516C278.665 31.2653 277.947 29.52 277.947 27.28C277.947 25.04 278.665 23.2947 280.103 22.044C281.54 20.7933 283.295 20.168 285.367 20.168C287.457 20.168 289.212 20.7933 290.631 22.044C292.068 23.2947 292.787 25.04 292.787 27.28C292.787 29.52 292.068 31.2653 290.631 32.516C289.212 33.7667 287.457 34.392 285.367 34.392C283.295 34.392 281.54 33.7667 280.103 32.516ZM287.915 29.912C288.531 29.2213 288.839 28.344 288.839 27.28C288.839 26.216 288.531 25.348 287.915 24.676C287.299 23.9853 286.449 23.64 285.367 23.64C284.284 23.64 283.435 23.9853 282.819 24.676C282.221 25.348 281.923 26.216 281.923 27.28C281.923 28.344 282.221 29.2213 282.819 29.912C283.435 30.584 284.284 30.92 285.367 30.92C286.449 30.92 287.299 30.584 287.915 29.912ZM309.076 27.868C309.076 29.94 308.413 31.5453 307.088 32.684C305.762 33.8227 304.045 34.392 301.936 34.392C299.808 34.392 298.081 33.7293 296.756 32.404C295.43 31.06 294.768 29.016 294.768 26.272C294.768 21.9227 296.14 18.8893 298.884 17.172C299.966 16.5 301.133 16.024 302.384 15.744C303.653 15.464 304.754 15.2307 305.688 15.044C306.64 14.8573 307.377 14.512 307.9 14.008V17.564C307.265 18.0867 306.192 18.4693 304.68 18.712C303.186 18.936 302.029 19.2627 301.208 19.692C300.498 20.084 299.938 20.6347 299.528 21.344C299.117 22.0347 298.856 22.7533 298.744 23.5C299.752 22.1 301.208 21.4 303.112 21.4C304.829 21.4 306.248 21.9787 307.368 23.136C308.506 24.2933 309.076 25.8707 309.076 27.868ZM298.744 27.896C298.744 28.7733 299.005 29.5573 299.528 30.248C300.05 30.9387 300.853 31.284 301.936 31.284C303.018 31.284 303.812 30.948 304.316 30.276C304.838 29.5853 305.1 28.792 305.1 27.896C305.1 27 304.838 26.216 304.316 25.544C303.812 24.8533 303.018 24.508 301.936 24.508C300.872 24.508 300.069 24.8627 299.528 25.572C299.005 26.2627 298.744 27.0373 298.744 27.896ZM313.052 32.516C311.615 31.2653 310.896 29.52 310.896 27.28C310.896 25.04 311.615 23.2947 313.052 22.044C314.489 20.7933 316.244 20.168 318.316 20.168C320.407 20.168 322.161 20.7933 323.58 22.044C325.017 23.2947 325.736 25.04 325.736 27.28C325.736 29.52 325.017 31.2653 323.58 32.516C322.161 33.7667 320.407 34.392 318.316 34.392C316.244 34.392 314.489 33.7667 313.052 32.516ZM320.864 29.912C321.48 29.2213 321.788 28.344 321.788 27.28C321.788 26.216 321.48 25.348 320.864 24.676C320.248 23.9853 319.399 23.64 318.316 23.64C317.233 23.64 316.384 23.9853 315.768 24.676C315.171 25.348 314.872 26.216 314.872 27.28C314.872 28.344 315.171 29.2213 315.768 29.912C316.384 30.584 317.233 30.92 318.316 30.92C319.399 30.92 320.248 30.584 320.864 29.912ZM334.866 34H331.002V23.836H326.718V20.56H339.15V23.836H334.866V34ZM342.282 32.516C340.845 31.2653 340.126 29.52 340.126 27.28C340.126 25.04 340.845 23.2947 342.282 22.044C343.72 20.7933 345.474 20.168 347.546 20.168C349.637 20.168 351.392 20.7933 352.81 22.044C354.248 23.2947 354.966 25.04 354.966 27.28C354.966 29.52 354.248 31.2653 352.81 32.516C351.392 33.7667 349.637 34.392 347.546 34.392C345.474 34.392 343.72 33.7667 342.282 32.516ZM350.094 29.912C350.71 29.2213 351.018 28.344 351.018 27.28C351.018 26.216 350.71 25.348 350.094 24.676C349.478 23.9853 348.629 23.64 347.546 23.64C346.464 23.64 345.614 23.9853 344.998 24.676C344.401 25.348 344.102 26.216 344.102 27.28C344.102 28.344 344.401 29.2213 344.998 29.912C345.614 30.584 346.464 30.92 347.546 30.92C348.629 30.92 349.478 30.584 350.094 29.912ZM364.096 34H360.232V23.836H355.948V20.56H368.38V23.836H364.096V34ZM369.357 27.28C369.357 26.0667 369.572 24.9933 370.001 24.06C370.43 23.108 370.99 22.3613 371.681 21.82C372.39 21.2787 373.128 20.868 373.893 20.588C374.677 20.308 375.47 20.168 376.273 20.168C377.617 20.168 378.774 20.42 379.745 20.924C380.734 21.428 381.462 22.0813 381.929 22.884C382.396 23.668 382.713 24.564 382.881 25.572C383.068 26.5613 383.021 27.5507 382.741 28.54H373.277C373.482 29.4733 374.024 30.1733 374.901 30.64C375.778 31.088 376.814 31.312 378.009 31.312C379.484 31.312 380.837 31.0413 382.069 30.5V33.552C380.744 34.112 379.101 34.392 377.141 34.392C374.901 34.392 373.044 33.7667 371.569 32.516C370.094 31.2653 369.357 29.52 369.357 27.28ZM379.241 26.02C379.334 25.404 379.157 24.7693 378.709 24.116C378.261 23.4627 377.496 23.136 376.413 23.136C375.554 23.136 374.817 23.3973 374.201 23.92C373.585 24.424 373.268 25.124 373.249 26.02H379.241ZM393.636 20.56H398.032L393.188 27.224L398.312 34H393.916L390.948 29.884L387.952 34H383.556L388.68 27.224L383.808 20.56H388.204L390.948 24.592L393.636 20.56ZM403.892 34H400V20.56H403.892V25.656H409.324V20.56H413.216V34H409.324V28.904H403.892V34ZM419.903 34H416.515V20.56H420.407V28.12L426.399 20.56H429.759V34H425.895V26.44L419.903 34ZM436.95 34H433.058V20.56H436.95V25.572H438.574L441.99 20.56H446.358L441.738 27.196L446.75 34H442.382L438.518 28.68H436.95V34ZM451.786 34H448.398V20.56H452.29V28.12L458.282 20.56H461.642V34H457.778V26.44L451.786 34Z" fill="#222222"/>
<path d="M15.5942 49.5558C15.5942 49.3106 15.4061 49.1117 15.1741 49.1117C14.9422 49.1117 14.7542 49.3106 14.7542 49.5558C14.7542 49.8012 14.9422 50 15.1741 50C15.4061 50 15.5942 49.8012 15.5942 49.5558Z" fill="#3951E7"/>
<path d="M15.5244 39.7208C15.5244 39.4755 15.3364 39.2766 15.1044 39.2766C14.8724 39.2766 14.6844 39.4755 14.6844 39.7208C14.6844 39.9661 14.8724 40.165 15.1044 40.165C15.3364 40.165 15.5244 39.9661 15.5244 39.7208Z" fill="#3951E7"/>
<path d="M18.2615 44.6382C18.2615 44.3929 18.0733 44.1941 17.8414 44.1941C17.6094 44.1941 17.4214 44.3929 17.4214 44.6382C17.4214 44.8835 17.6094 45.0824 17.8414 45.0824C18.0733 45.0824 18.2615 44.8835 18.2615 44.6382Z" fill="#3951E7"/>
<path d="M21.0085 49.5558C21.0085 49.3106 20.8204 49.1117 20.5885 49.1117C20.3565 49.1117 20.1685 49.3106 20.1685 49.5558C20.1685 49.8012 20.3565 50 20.5885 50C20.8204 50 21.0085 49.8012 21.0085 49.5558Z" fill="#3951E7"/>
<path d="M13.1461 24.9683C13.1461 24.4601 12.7569 24.0482 12.277 24.0482C11.797 24.0482 11.408 24.4601 11.408 24.9683C11.408 25.4763 11.797 25.8883 12.277 25.8883C12.7569 25.8883 13.1461 25.4763 13.1461 24.9683Z" fill="#3951E7"/>
<path d="M15.8931 29.8857C15.8931 29.3775 15.5039 28.9656 15.024 28.9656C14.544 28.9656 14.155 29.3775 14.155 29.8857C14.155 30.3937 14.544 30.8057 15.024 30.8057C15.5039 30.8057 15.8931 30.3937 15.8931 29.8857Z" fill="#3951E7"/>
<path d="M18.6402 34.8033C18.6402 34.2951 18.251 33.8832 17.7711 33.8832C17.2911 33.8832 16.902 34.2951 16.902 34.8033C16.902 35.3114 17.2911 35.7233 17.7711 35.7233C18.251 35.7233 18.6402 35.3114 18.6402 34.8033Z" fill="#3951E7"/>
<path d="M21.3872 39.7207C21.3872 39.2126 20.998 38.8007 20.5181 38.8007C20.0381 38.8007 19.649 39.2126 19.649 39.7207C19.649 40.2288 20.0381 40.6407 20.5181 40.6407C20.998 40.6407 21.3872 40.2288 21.3872 39.7207Z" fill="#3951E7"/>
<path d="M24.1242 44.6381C24.1242 44.13 23.7351 43.7181 23.2552 43.7181C22.7752 43.7181 22.3861 44.13 22.3861 44.6381C22.3861 45.1463 22.7752 45.5582 23.2552 45.5582C23.7351 45.5582 24.1242 45.1463 24.1242 44.6381Z" fill="#3951E7"/>
<path d="M26.4226 49.5558C26.4226 49.3106 26.2346 49.1117 26.0026 49.1117C25.7706 49.1117 25.5826 49.3106 25.5826 49.5558C25.5826 49.8012 25.7706 50 26.0026 50C26.2346 50 26.4226 49.8012 26.4226 49.5558Z" fill="#3951E7"/>
<path d="M19.4293 24.9681C19.4293 23.9519 18.6512 23.128 17.6912 23.128C16.7312 23.128 15.9531 23.9519 15.9531 24.9681C15.9531 25.9844 16.7312 26.8082 17.6912 26.8082C18.6512 26.8082 19.4293 25.9844 19.4293 24.9681Z" fill="#3951E7"/>
<path d="M22.1763 29.8855C22.1763 28.8693 21.3982 28.0454 20.4382 28.0454C19.4782 28.0454 18.7001 28.8693 18.7001 29.8855C18.7001 30.9018 19.4782 31.7256 20.4382 31.7256C21.3982 31.7256 22.1763 30.9018 22.1763 29.8855Z" fill="#3951E7"/>
<path d="M24.9234 34.8032C24.9234 33.7869 24.1452 32.963 23.1853 32.963C22.2253 32.963 21.4471 33.7869 21.4471 34.8032C21.4471 35.8193 22.2253 36.6433 23.1853 36.6433C24.1452 36.6433 24.9234 35.8193 24.9234 34.8032Z" fill="#3951E7"/>
<path d="M27.6605 39.7208C27.6605 38.7046 26.8823 37.8807 25.9223 37.8807C24.9624 37.8807 24.1842 38.7046 24.1842 39.7208C24.1842 40.7371 24.9624 41.5609 25.9223 41.5609C26.8823 41.5609 27.6605 40.7371 27.6605 39.7208Z" fill="#3951E7"/>
<path d="M29.5384 44.6381C29.5384 44.13 29.1493 43.7181 28.6693 43.7181C28.1893 43.7181 27.8002 44.13 27.8002 44.6381C27.8002 45.1463 28.1893 45.5582 28.6693 45.5582C29.1493 45.5582 29.5384 45.1463 29.5384 44.6381Z" fill="#3951E7"/>
<path d="M31.8367 49.5558C31.8367 49.3106 31.6487 49.1117 31.4167 49.1117C31.1848 49.1117 30.9967 49.3106 30.9967 49.5558C30.9967 49.8012 31.1848 50 31.4167 50C31.6487 50 31.8367 49.8012 31.8367 49.5558Z" fill="#3951E7"/>
<path d="M24.8434 24.9681C24.8434 23.9519 24.0652 23.128 23.1053 23.128C22.1454 23.128 21.3671 23.9519 21.3671 24.9681C21.3671 25.9844 22.1454 26.8082 23.1053 26.8082C24.0652 26.8082 24.8434 25.9844 24.8434 24.9681Z" fill="#3951E7"/>
<path d="M27.5905 29.8855C27.5905 28.8693 26.8123 28.0454 25.8523 28.0454C24.8925 28.0454 24.1142 28.8693 24.1142 29.8855C24.1142 30.9018 24.8925 31.7256 25.8523 31.7256C26.8123 31.7256 27.5905 30.9018 27.5905 29.8855Z" fill="#3951E7"/>
<path d="M30.3275 34.8032C30.3275 33.7869 29.5494 32.963 28.5894 32.963C27.6295 32.963 26.8513 33.7869 26.8513 34.8032C26.8513 35.8193 27.6295 36.6433 28.5894 36.6433C29.5494 36.6433 30.3275 35.8193 30.3275 34.8032Z" fill="#3951E7"/>
<path d="M33.0745 39.7208C33.0745 38.7046 32.2964 37.8807 31.3364 37.8807C30.3765 37.8807 29.5983 38.7046 29.5983 39.7208C29.5983 40.7371 30.3765 41.5609 31.3364 41.5609C32.2964 41.5609 33.0745 40.7371 33.0745 39.7208Z" fill="#3951E7"/>
<path d="M34.9524 44.6381C34.9524 44.13 34.5633 43.7181 34.0834 43.7181C33.6034 43.7181 33.2143 44.13 33.2143 44.6381C33.2143 45.1463 33.6034 45.5582 34.0834 45.5582C34.5633 45.5582 34.9524 45.1463 34.9524 44.6381Z" fill="#3951E7"/>
<path d="M37.2511 49.5558C37.2511 49.3106 37.0631 49.1117 36.8311 49.1117C36.5991 49.1117 36.4111 49.3106 36.4111 49.5558C36.4111 49.8012 36.5991 50 36.8311 50C37.0631 50 37.2511 49.8012 37.2511 49.5558Z" fill="#3951E7"/>
<path d="M29.3886 24.9683C29.3886 24.4601 28.9995 24.0482 28.5195 24.0482C28.0395 24.0482 27.6505 24.4601 27.6505 24.9683C27.6505 25.4763 28.0395 25.8883 28.5195 25.8883C28.9995 25.8883 29.3886 25.4763 29.3886 24.9683Z" fill="#3951E7"/>
<path d="M32.1256 29.8857C32.1256 29.3775 31.7365 28.9656 31.2566 28.9656C30.7766 28.9656 30.3875 29.3775 30.3875 29.8857C30.3875 30.3937 30.7766 30.8057 31.2566 30.8057C31.7365 30.8057 32.1256 30.3937 32.1256 29.8857Z" fill="#3951E7"/>
<path d="M34.8727 34.8033C34.8727 34.2951 34.4835 33.8832 34.0037 33.8832C33.5237 33.8832 33.1346 34.2951 33.1346 34.8033C33.1346 35.3114 33.5237 35.7233 34.0037 35.7233C34.4835 35.7233 34.8727 35.3114 34.8727 34.8033Z" fill="#3951E7"/>
<path d="M37.6197 39.7207C37.6197 39.2126 37.2305 38.8007 36.7507 38.8007C36.2707 38.8007 35.8816 39.2126 35.8816 39.7207C35.8816 40.2288 36.2707 40.6407 36.7507 40.6407C37.2305 40.6407 37.6197 40.2288 37.6197 39.7207Z" fill="#3951E7"/>
<path d="M39.9181 44.6382C39.9181 44.3929 39.7301 44.1941 39.4981 44.1941C39.2662 44.1941 39.0781 44.3929 39.0781 44.6382C39.0781 44.8835 39.2662 45.0824 39.4981 45.0824C39.7301 45.0824 39.9181 44.8835 39.9181 44.6382Z" fill="#3951E7"/>
<path d="M42.6651 49.5558C42.6651 49.3106 42.4771 49.1117 42.2451 49.1117C42.0132 49.1117 41.8251 49.3106 41.8251 49.5558C41.8251 49.8012 42.0132 50 42.2451 50C42.4771 50 42.6651 49.8012 42.6651 49.5558Z" fill="#3951E7"/>
<path d="M34.344 24.9683C34.344 24.723 34.156 24.5241 33.924 24.5241C33.6921 24.5241 33.504 24.723 33.504 24.9683C33.504 25.2136 33.6921 25.4124 33.924 25.4124C34.156 25.4124 34.344 25.2136 34.344 24.9683Z" fill="#3951E7"/>
<path d="M37.091 29.8857C37.091 29.6403 36.903 29.4415 36.671 29.4415C36.4391 29.4415 36.251 29.6403 36.251 29.8857C36.251 30.1309 36.4391 30.3298 36.671 30.3298C36.903 30.3298 37.091 30.1309 37.091 29.8857Z" fill="#3951E7"/>
<path d="M39.838 34.8031C39.838 34.5577 39.65 34.3589 39.418 34.3589C39.1861 34.3589 38.998 34.5577 38.998 34.8031C38.998 35.0484 39.1861 35.2472 39.418 35.2472C39.65 35.2472 39.838 35.0484 39.838 34.8031Z" fill="#3951E7"/>
<path d="M42.5851 39.7208C42.5851 39.4755 42.3971 39.2766 42.1651 39.2766C41.9332 39.2766 41.7451 39.4755 41.7451 39.7208C41.7451 39.9661 41.9332 40.165 42.1651 40.165C42.3971 40.165 42.5851 39.9661 42.5851 39.7208Z" fill="#3951E7"/>
<path d="M45.3322 44.6382C45.3322 44.3929 45.1442 44.1941 44.9122 44.1941C44.6803 44.1941 44.4922 44.3929 44.4922 44.6382C44.4922 44.8835 44.6803 45.0824 44.9122 45.0824C45.1442 45.0824 45.3322 44.8835 45.3322 44.6382Z" fill="#3951E7"/>
<path d="M39.7583 24.9683C39.7583 24.723 39.5703 24.5241 39.3383 24.5241C39.1063 24.5241 38.9183 24.723 38.9183 24.9683C38.9183 25.2136 39.1063 25.4124 39.3383 25.4124C39.5703 25.4124 39.7583 25.2136 39.7583 24.9683Z" fill="#3951E7"/>
<path d="M42.5054 29.8857C42.5054 29.6403 42.3174 29.4415 42.0854 29.4415C41.8534 29.4415 41.6654 29.6403 41.6654 29.8857C41.6654 30.1309 41.8534 30.3298 42.0854 30.3298C42.3174 30.3298 42.5054 30.1309 42.5054 29.8857Z" fill="#3951E7"/>
<path d="M45.2525 34.8031C45.2525 34.5577 45.0645 34.3589 44.8325 34.3589C44.6005 34.3589 44.4125 34.5577 44.4125 34.8031C44.4125 35.0484 44.6005 35.2472 44.8325 35.2472C45.0645 35.2472 45.2525 35.0484 45.2525 34.8031Z" fill="#3951E7"/>
<path d="M47.9995 39.7208C47.9995 39.4755 47.8115 39.2766 47.5795 39.2766C47.3475 39.2766 47.1595 39.4755 47.1595 39.7208C47.1595 39.9661 47.3475 40.165 47.5795 40.165C47.8115 40.165 47.9995 39.9661 47.9995 39.7208Z" fill="#3951E7"/>
<path d="M45.1725 24.9683C45.1725 24.723 44.9845 24.5241 44.7525 24.5241C44.5206 24.5241 44.3325 24.723 44.3325 24.9683C44.3325 25.2136 44.5206 25.4124 44.7525 25.4124C44.9845 25.4124 45.1725 25.2136 45.1725 24.9683Z" fill="#3951E7"/>
<path d="M47.9195 29.8857C47.9195 29.6403 47.7315 29.4415 47.4995 29.4415C47.2676 29.4415 47.0795 29.6403 47.0795 29.8857C47.0795 30.1309 47.2676 30.3298 47.4995 30.3298C47.7315 30.3298 47.9195 30.1309 47.9195 29.8857Z" fill="#3951E7"/>
<path d="M50.6665 34.8031C50.6665 34.5577 50.4785 34.3589 50.2465 34.3589C50.0146 34.3589 49.8265 34.5577 49.8265 34.8031C49.8265 35.0484 50.0146 35.2472 50.2465 35.2472C50.4785 35.2472 50.6665 35.0484 50.6665 34.8031Z" fill="#3951E7"/>
<path d="M50.5865 24.9683C50.5865 24.723 50.3985 24.5241 50.1665 24.5241C49.9346 24.5241 49.7465 24.723 49.7465 24.9683C49.7465 25.2136 49.9346 25.4124 50.1665 25.4124C50.3985 25.4124 50.5865 25.2136 50.5865 24.9683Z" fill="#3951E7"/>
<path d="M53.3336 29.8857C53.3336 29.6403 53.1456 29.4415 52.9136 29.4415C52.6817 29.4415 52.4936 29.6403 52.4936 29.8857C52.4936 30.1309 52.6817 30.3298 52.9136 30.3298C53.1456 30.3298 53.3336 30.1309 53.3336 29.8857Z" fill="#3951E7"/>
<path d="M56.0009 24.9683C56.0009 24.723 55.8129 24.5241 55.5809 24.5241C55.349 24.5241 55.1609 24.723 55.1609 24.9683C55.1609 25.2136 55.349 25.4124 55.5809 25.4124C55.8129 25.4124 56.0009 25.2136 56.0009 24.9683Z" fill="#3951E7"/>
<path d="M15.5942 0.444158C15.5942 0.198918 15.4061 2.38419e-07 15.1741 2.38419e-07C14.9422 2.38419e-07 14.7542 0.198918 14.7542 0.444158C14.7542 0.689503 14.9422 0.88842 15.1741 0.88842C15.4061 0.88842 15.5942 0.689503 15.5942 0.444158Z" fill="#3951E7"/>
<path d="M15.5244 10.2896C15.5244 10.0443 15.3364 9.84544 15.1044 9.84544C14.8724 9.84544 14.6844 10.0443 14.6844 10.2896C14.6844 10.5348 14.8724 10.7338 15.1044 10.7338C15.3364 10.7338 15.5244 10.5348 15.5244 10.2896Z" fill="#3951E7"/>
<path d="M18.2615 5.36157C18.2615 5.11633 18.0733 4.91751 17.8414 4.91751C17.6094 4.91751 17.4214 5.11633 17.4214 5.36157C17.4214 5.60691 17.6094 5.80583 17.8414 5.80583C18.0733 5.80583 18.2615 5.60691 18.2615 5.36157Z" fill="#3951E7"/>
<path d="M21.0085 0.444158C21.0085 0.198918 20.8204 2.38419e-07 20.5885 2.38419e-07C20.3565 2.38419e-07 20.1685 0.198918 20.1685 0.444158C20.1685 0.689503 20.3565 0.88842 20.5885 0.88842C20.8204 0.88842 21.0085 0.689503 21.0085 0.444158Z" fill="#3951E7"/>
<path d="M13.1461 25.0423C13.1461 24.5342 12.7569 24.1222 12.277 24.1222C11.797 24.1222 11.408 24.5342 11.408 25.0423C11.408 25.5504 11.797 25.9624 12.277 25.9624C12.7569 25.9624 13.1461 25.5504 13.1461 25.0423Z" fill="#3951E7"/>
<path d="M15.8931 20.1245C15.8931 19.6165 15.5039 19.2046 15.024 19.2046C14.544 19.2046 14.155 19.6165 14.155 20.1245C14.155 20.6327 14.544 21.0447 15.024 21.0447C15.5039 21.0447 15.8931 20.6327 15.8931 20.1245Z" fill="#3951E7"/>
<path d="M18.6402 15.207C18.6402 14.6988 18.251 14.2869 17.7711 14.2869C17.2911 14.2869 16.902 14.6988 16.902 15.207C16.902 15.7151 17.2911 16.127 17.7711 16.127C18.251 16.127 18.6402 15.7151 18.6402 15.207Z" fill="#3951E7"/>
<path d="M21.3872 10.2896C21.3872 9.78141 20.998 9.3695 20.5181 9.3695C20.0381 9.3695 19.649 9.78141 19.649 10.2896C19.649 10.7977 20.0381 11.2096 20.5181 11.2096C20.998 11.2096 21.3872 10.7977 21.3872 10.2896Z" fill="#3951E7"/>
<path d="M24.1242 5.36156C24.1242 4.85342 23.7351 4.44151 23.2552 4.44151C22.7752 4.44151 22.3861 4.85342 22.3861 5.36156C22.3861 5.8697 22.7752 6.2816 23.2552 6.2816C23.7351 6.2816 24.1242 5.8697 24.1242 5.36156Z" fill="#3951E7"/>
<path d="M26.4226 0.444158C26.4226 0.198918 26.2346 2.38419e-07 26.0026 2.38419e-07C25.7706 2.38419e-07 25.5826 0.198918 25.5826 0.444158C25.5826 0.689503 25.7706 0.88842 26.0026 0.88842C26.2346 0.88842 26.4226 0.689503 26.4226 0.444158Z" fill="#3951E7"/>
<path d="M19.4293 25.0422C19.4293 24.0259 18.6512 23.2021 17.6912 23.2021C16.7312 23.2021 15.9531 24.0259 15.9531 25.0422C15.9531 26.0584 16.7312 26.8823 17.6912 26.8823C18.6512 26.8823 19.4293 26.0584 19.4293 25.0422Z" fill="#3951E7"/>
<path d="M22.1763 20.1244C22.1763 19.1081 21.3982 18.2843 20.4382 18.2843C19.4782 18.2843 18.7001 19.1081 18.7001 20.1244C18.7001 21.1407 19.4782 21.9645 20.4382 21.9645C21.3982 21.9645 22.1763 21.1407 22.1763 20.1244Z" fill="#3951E7"/>
<path d="M24.9234 15.207C24.9234 14.1907 24.1452 13.3669 23.1853 13.3669C22.2253 13.3669 21.4471 14.1907 21.4471 15.207C21.4471 16.2233 22.2253 17.0471 23.1853 17.0471C24.1452 17.0471 24.9234 16.2233 24.9234 15.207Z" fill="#3951E7"/>
<path d="M27.6605 10.2897C27.6605 9.27343 26.8823 8.44962 25.9223 8.44962C24.9624 8.44962 24.1842 9.27343 24.1842 10.2897C24.1842 11.3059 24.9624 12.1297 25.9223 12.1297C26.8823 12.1297 27.6605 11.3059 27.6605 10.2897Z" fill="#3951E7"/>
<path d="M29.5384 5.36156C29.5384 4.85342 29.1493 4.44151 28.6693 4.44151C28.1893 4.44151 27.8002 4.85342 27.8002 5.36156C27.8002 5.8697 28.1893 6.2816 28.6693 6.2816C29.1493 6.2816 29.5384 5.8697 29.5384 5.36156Z" fill="#3951E7"/>
<path d="M31.8367 0.444158C31.8367 0.198918 31.6487 2.38419e-07 31.4167 2.38419e-07C31.1848 2.38419e-07 30.9967 0.198918 30.9967 0.444158C30.9967 0.689503 31.1848 0.88842 31.4167 0.88842C31.6487 0.88842 31.8367 0.689503 31.8367 0.444158Z" fill="#3951E7"/>
<path d="M24.8434 25.0422C24.8434 24.0259 24.0652 23.2021 23.1053 23.2021C22.1454 23.2021 21.3671 24.0259 21.3671 25.0422C21.3671 26.0584 22.1454 26.8823 23.1053 26.8823C24.0652 26.8823 24.8434 26.0584 24.8434 25.0422Z" fill="#3951E7"/>
<path d="M27.5905 20.1244C27.5905 19.1081 26.8123 18.2843 25.8523 18.2843C24.8925 18.2843 24.1142 19.1081 24.1142 20.1244C24.1142 21.1407 24.8925 21.9645 25.8523 21.9645C26.8123 21.9645 27.5905 21.1407 27.5905 20.1244Z" fill="#3951E7"/>
<path d="M30.3275 15.207C30.3275 14.1907 29.5494 13.3669 28.5894 13.3669C27.6295 13.3669 26.8513 14.1907 26.8513 15.207C26.8513 16.2233 27.6295 17.0471 28.5894 17.0471C29.5494 17.0471 30.3275 16.2233 30.3275 15.207Z" fill="#3951E7"/>
<path d="M33.0745 10.2897C33.0745 9.27343 32.2964 8.44962 31.3364 8.44962C30.3765 8.44962 29.5983 9.27343 29.5983 10.2897C29.5983 11.3059 30.3765 12.1297 31.3364 12.1297C32.2964 12.1297 33.0745 11.3059 33.0745 10.2897Z" fill="#3951E7"/>
<path d="M34.9524 5.36156C34.9524 4.85342 34.5633 4.44151 34.0834 4.44151C33.6034 4.44151 33.2143 4.85342 33.2143 5.36156C33.2143 5.8697 33.6034 6.2816 34.0834 6.2816C34.5633 6.2816 34.9524 5.8697 34.9524 5.36156Z" fill="#3951E7"/>
<path d="M37.2511 0.444158C37.2511 0.198918 37.0631 2.38419e-07 36.8311 2.38419e-07C36.5991 2.38419e-07 36.4111 0.198918 36.4111 0.444158C36.4111 0.689503 36.5991 0.88842 36.8311 0.88842C37.0631 0.88842 37.2511 0.689503 37.2511 0.444158Z" fill="#3951E7"/>
<path d="M29.3886 25.0423C29.3886 24.5342 28.9995 24.1222 28.5195 24.1222C28.0395 24.1222 27.6505 24.5342 27.6505 25.0423C27.6505 25.5504 28.0395 25.9624 28.5195 25.9624C28.9995 25.9624 29.3886 25.5504 29.3886 25.0423Z" fill="#3951E7"/>
<path d="M32.1256 20.1245C32.1256 19.6165 31.7365 19.2046 31.2566 19.2046C30.7766 19.2046 30.3875 19.6165 30.3875 20.1245C30.3875 20.6327 30.7766 21.0447 31.2566 21.0447C31.7365 21.0447 32.1256 20.6327 32.1256 20.1245Z" fill="#3951E7"/>
<path d="M34.8727 15.207C34.8727 14.6988 34.4835 14.2869 34.0037 14.2869C33.5237 14.2869 33.1346 14.6988 33.1346 15.207C33.1346 15.7151 33.5237 16.127 34.0037 16.127C34.4835 16.127 34.8727 15.7151 34.8727 15.207Z" fill="#3951E7"/>
<path d="M37.6197 10.2896C37.6197 9.78141 37.2305 9.3695 36.7507 9.3695C36.2707 9.3695 35.8816 9.78141 35.8816 10.2896C35.8816 10.7977 36.2707 11.2096 36.7507 11.2096C37.2305 11.2096 37.6197 10.7977 37.6197 10.2896Z" fill="#3951E7"/>
<path d="M39.9181 5.36157C39.9181 5.11633 39.7301 4.91751 39.4981 4.91751C39.2662 4.91751 39.0781 5.11633 39.0781 5.36157C39.0781 5.60691 39.2662 5.80583 39.4981 5.80583C39.7301 5.80583 39.9181 5.60691 39.9181 5.36157Z" fill="#3951E7"/>
<path d="M42.6651 0.444158C42.6651 0.198918 42.4771 2.38419e-07 42.2451 2.38419e-07C42.0132 2.38419e-07 41.8251 0.198918 41.8251 0.444158C41.8251 0.689503 42.0132 0.88842 42.2451 0.88842C42.4771 0.88842 42.6651 0.689503 42.6651 0.444158Z" fill="#3951E7"/>
<path d="M34.344 25.0421C34.344 24.7969 34.156 24.5979 33.924 24.5979C33.6921 24.5979 33.504 24.7969 33.504 25.0421C33.504 25.2874 33.6921 25.4863 33.924 25.4863C34.156 25.4863 34.344 25.2874 34.344 25.0421Z" fill="#3951E7"/>
<path d="M37.091 20.1247C37.091 19.8793 36.903 19.6805 36.671 19.6805C36.4391 19.6805 36.251 19.8793 36.251 20.1247C36.251 20.37 36.4391 20.5688 36.671 20.5688C36.903 20.5688 37.091 20.37 37.091 20.1247Z" fill="#3951E7"/>
<path d="M39.838 15.2073C39.838 14.9619 39.65 14.7631 39.418 14.7631C39.1861 14.7631 38.998 14.9619 38.998 15.2073C38.998 15.4526 39.1861 15.6514 39.418 15.6514C39.65 15.6514 39.838 15.4526 39.838 15.2073Z" fill="#3951E7"/>
<path d="M42.5851 10.2896C42.5851 10.0443 42.3971 9.84544 42.1651 9.84544C41.9332 9.84544 41.7451 10.0443 41.7451 10.2896C41.7451 10.5348 41.9332 10.7338 42.1651 10.7338C42.3971 10.7338 42.5851 10.5348 42.5851 10.2896Z" fill="#3951E7"/>
<path d="M45.3322 5.36157C45.3322 5.11633 45.1442 4.91751 44.9122 4.91751C44.6803 4.91751 44.4922 5.11633 44.4922 5.36157C44.4922 5.60691 44.6803 5.80583 44.9122 5.80583C45.1442 5.80583 45.3322 5.60691 45.3322 5.36157Z" fill="#3951E7"/>
<path d="M39.7583 25.0421C39.7583 24.7969 39.5703 24.5979 39.3383 24.5979C39.1063 24.5979 38.9183 24.7969 38.9183 25.0421C38.9183 25.2874 39.1063 25.4863 39.3383 25.4863C39.5703 25.4863 39.7583 25.2874 39.7583 25.0421Z" fill="#3951E7"/>
<path d="M42.5054 20.1247C42.5054 19.8793 42.3174 19.6805 42.0854 19.6805C41.8534 19.6805 41.6654 19.8793 41.6654 20.1247C41.6654 20.37 41.8534 20.5688 42.0854 20.5688C42.3174 20.5688 42.5054 20.37 42.5054 20.1247Z" fill="#3951E7"/>
<path d="M45.2525 15.2073C45.2525 14.9619 45.0645 14.7631 44.8325 14.7631C44.6005 14.7631 44.4125 14.9619 44.4125 15.2073C44.4125 15.4526 44.6005 15.6514 44.8325 15.6514C45.0645 15.6514 45.2525 15.4526 45.2525 15.2073Z" fill="#3951E7"/>
<path d="M47.9995 10.2896C47.9995 10.0443 47.8115 9.84544 47.5795 9.84544C47.3475 9.84544 47.1595 10.0443 47.1595 10.2896C47.1595 10.5348 47.3475 10.7338 47.5795 10.7338C47.8115 10.7338 47.9995 10.5348 47.9995 10.2896Z" fill="#3951E7"/>
<path d="M45.1725 25.0421C45.1725 24.7969 44.9845 24.5979 44.7525 24.5979C44.5206 24.5979 44.3325 24.7969 44.3325 25.0421C44.3325 25.2874 44.5206 25.4863 44.7525 25.4863C44.9845 25.4863 45.1725 25.2874 45.1725 25.0421Z" fill="#3951E7"/>
<path d="M47.9195 20.1247C47.9195 19.8793 47.7315 19.6805 47.4995 19.6805C47.2676 19.6805 47.0795 19.8793 47.0795 20.1247C47.0795 20.37 47.2676 20.5688 47.4995 20.5688C47.7315 20.5688 47.9195 20.37 47.9195 20.1247Z" fill="#3951E7"/>
<path d="M50.6665 15.2073C50.6665 14.9619 50.4785 14.7631 50.2465 14.7631C50.0146 14.7631 49.8265 14.9619 49.8265 15.2073C49.8265 15.4526 50.0146 15.6514 50.2465 15.6514C50.4785 15.6514 50.6665 15.4526 50.6665 15.2073Z" fill="#3951E7"/>
<path d="M50.5865 25.0421C50.5865 24.7969 50.3985 24.5979 50.1665 24.5979C49.9346 24.5979 49.7465 24.7969 49.7465 25.0421C49.7465 25.2874 49.9346 25.4863 50.1665 25.4863C50.3985 25.4863 50.5865 25.2874 50.5865 25.0421Z" fill="#3951E7"/>
<path d="M53.3336 20.1247C53.3336 19.8793 53.1456 19.6805 52.9136 19.6805C52.6817 19.6805 52.4936 19.8793 52.4936 20.1247C52.4936 20.37 52.6817 20.5688 52.9136 20.5688C53.1456 20.5688 53.3336 20.37 53.3336 20.1247Z" fill="#3951E7"/>
<path d="M56.0009 25.0421C56.0009 24.7969 55.8129 24.5979 55.5809 24.5979C55.349 24.5979 55.1609 24.7969 55.1609 25.0421C55.1609 25.2874 55.349 25.4863 55.5809 25.4863C55.8129 25.4863 56.0009 25.2874 56.0009 25.0421Z" fill="#3951E7"/>
<path d="M0.84 25.5497C0.84 25.3044 0.651998 25.1055 0.419998 25.1055C0.188098 25.1055 0 25.3044 0 25.5497C0 25.795 0.188098 25.9939 0.419998 25.9939C0.651998 25.9939 0.84 25.795 0.84 25.5497Z" fill="#3951E7"/>
<path d="M3.58707 30.4673C3.58707 30.2221 3.39907 30.0233 3.16707 30.0233C2.93517 30.0233 2.74707 30.2221 2.74707 30.4673C2.74707 30.7127 2.93517 30.9116 3.16707 30.9116C3.39907 30.9116 3.58707 30.7127 3.58707 30.4673Z" fill="#3951E7"/>
<path d="M6.33408 35.385C6.33408 35.1397 6.14608 34.9409 5.91408 34.9409C5.68218 34.9409 5.49408 35.1397 5.49408 35.385C5.49408 35.6303 5.68218 35.8292 5.91408 35.8292C6.14608 35.8292 6.33408 35.6303 6.33408 35.385Z" fill="#3951E7"/>
<path d="M9.08115 40.3024C9.08115 40.0572 8.89315 39.8583 8.66115 39.8583C8.42925 39.8583 8.24115 40.0572 8.24115 40.3024C8.24115 40.5478 8.42925 40.7466 8.66115 40.7466C8.89315 40.7466 9.08115 40.5478 9.08115 40.3024Z" fill="#3951E7"/>
<path d="M11.8282 45.2199C11.8282 44.9746 11.6402 44.7757 11.4082 44.7757C11.1763 44.7757 10.9882 44.9746 10.9882 45.2199C10.9882 45.4652 11.1763 45.664 11.4082 45.664C11.6402 45.664 11.8282 45.4652 11.8282 45.2199Z" fill="#3951E7"/>
<path d="M6.25437 25.5497C6.25437 25.3045 6.06627 25.1055 5.83437 25.1055C5.60237 25.1055 5.41437 25.3045 5.41437 25.5497C5.41437 25.795 5.60237 25.9939 5.83437 25.9939C6.06627 25.9939 6.25437 25.795 6.25437 25.5497Z" fill="#3951E7"/>
<path d="M9.00144 30.4673C9.00144 30.2221 8.81334 30.0233 8.58144 30.0233C8.34944 30.0233 8.16144 30.2221 8.16144 30.4673C8.16144 30.7127 8.34944 30.9116 8.58144 30.9116C8.81334 30.9116 9.00144 30.7127 9.00144 30.4673Z" fill="#3951E7"/>
<path d="M11.7484 35.385C11.7484 35.1397 11.5603 34.9409 11.3284 34.9409C11.0964 34.9409 10.9084 35.1397 10.9084 35.385C10.9084 35.6303 11.0964 35.8292 11.3284 35.8292C11.5603 35.8292 11.7484 35.6303 11.7484 35.385Z" fill="#3951E7"/>
<path d="M0.84 25.6238C0.84 25.3785 0.651998 25.1796 0.419998 25.1796C0.188098 25.1796 0 25.3785 0 25.6238C0 25.8691 0.188098 26.068 0.419998 26.068C0.651998 26.068 0.84 25.8691 0.84 25.6238Z" fill="#3951E7"/>
<path d="M3.58707 20.7064C3.58707 20.461 3.39907 20.2622 3.16707 20.2622C2.93517 20.2622 2.74707 20.461 2.74707 20.7064C2.74707 20.9516 2.93517 21.1505 3.16707 21.1505C3.39907 21.1505 3.58707 20.9516 3.58707 20.7064Z" fill="#3951E7"/>
<path d="M6.33408 15.7887C6.33408 15.5435 6.14608 15.3445 5.91408 15.3445C5.68218 15.3445 5.49408 15.5435 5.49408 15.7887C5.49408 16.0341 5.68218 16.2329 5.91408 16.2329C6.14608 16.2329 6.33408 16.0341 6.33408 15.7887Z" fill="#3951E7"/>
<path d="M9.08115 10.8713C9.08115 10.626 8.89315 10.4271 8.66115 10.4271C8.42925 10.4271 8.24115 10.626 8.24115 10.8713C8.24115 11.1166 8.42925 11.3155 8.66115 11.3155C8.89315 11.3155 9.08115 11.1166 9.08115 10.8713Z" fill="#3951E7"/>
<path d="M11.8282 5.94329C11.8282 5.69795 11.6402 5.49914 11.4082 5.49914C11.1763 5.49914 10.9882 5.69795 10.9882 5.94329C10.9882 6.18864 11.1763 6.38746 11.4082 6.38746C11.6402 6.38746 11.8282 6.18864 11.8282 5.94329Z" fill="#3951E7"/>
<path d="M6.25437 25.6238C6.25437 25.3785 6.06627 25.1796 5.83437 25.1796C5.60237 25.1796 5.41437 25.3785 5.41437 25.6238C5.41437 25.869 5.60237 26.068 5.83437 26.068C6.06627 26.068 6.25437 25.869 6.25437 25.6238Z" fill="#3951E7"/>
<path d="M9.00144 20.7064C9.00144 20.461 8.81334 20.2622 8.58144 20.2622C8.34944 20.2622 8.16144 20.461 8.16144 20.7064C8.16144 20.9516 8.34944 21.1505 8.58144 21.1505C8.81334 21.1505 9.00144 20.9516 9.00144 20.7064Z" fill="#3951E7"/>
<path d="M11.7484 15.7887C11.7484 15.5435 11.5603 15.3445 11.3284 15.3445C11.0964 15.3445 10.9084 15.5435 10.9084 15.7887C10.9084 16.0341 11.0964 16.2329 11.3284 16.2329C11.5603 16.2329 11.7484 16.0341 11.7484 15.7887Z" fill="#3951E7"/>
</svg>
